<?xml version="1.0" encoding="UTF-8"?>
<svg xmlns="http://www.w3.org/2000/svg" xmlns:xlink="http://www.w3.org/1999/xlink" width="25px" height="25px" viewBox="0 0 25 25" version="1.1">
<g id="surface1">
<path style=" stroke:none;fill-rule:nonzero;fill:rgb(0%,33.725491%,82.352942%);fill-opacity:1;" d="M 3.996094 12.316406 C 3.996094 11.429688 4.722656 10.714844 5.636719 10.714844 C 6.558594 10.714844 7.285156 11.429688 7.285156 12.316406 C 7.285156 13.195312 6.558594 13.925781 5.636719 13.925781 C 4.722656 13.921875 3.996094 13.195312 3.996094 12.316406 Z M 6.496094 12.316406 C 6.496094 11.871094 6.113281 11.484375 5.636719 11.484375 C 5.167969 11.484375 4.78125 11.875 4.78125 12.316406 C 4.78125 12.765625 5.164062 13.15625 5.636719 13.15625 C 6.113281 13.15625 6.496094 12.765625 6.496094 12.316406 Z M 20.546875 12.34375 C 20.546875 11.371094 21.339844 10.714844 22.054688 10.714844 C 22.542969 10.714844 22.820312 10.863281 23.015625 11.148438 L 23.089844 10.769531 L 23.824219 10.769531 L 23.824219 13.863281 L 23.089844 13.863281 L 22.996094 13.546875 C 22.78125 13.78125 22.511719 13.925781 22.054688 13.925781 C 21.351562 13.921875 20.546875 13.304688 20.546875 12.34375 Z M 23.050781 12.335938 C 23.050781 11.867188 22.664062 11.484375 22.195312 11.484375 C 21.726562 11.484375 21.34375 11.871094 21.34375 12.339844 L 21.34375 12.34375 C 21.34375 12.773438 21.726562 13.15625 22.195312 13.15625 C 22.664062 13.15625 23.050781 12.773438 23.050781 12.335938 Z M 19.648438 11.132812 L 19.648438 10.773438 L 18.847656 10.773438 L 18.847656 13.867188 L 19.648438 13.867188 L 19.648438 12.199219 C 19.648438 11.699219 19.894531 11.4375 20.324219 11.4375 C 20.351562 11.4375 20.378906 11.441406 20.40625 11.441406 L 20.554688 10.695312 C 20.136719 10.695312 19.835938 10.839844 19.648438 11.132812 Z M 11.597656 11.132812 L 11.597656 10.773438 L 10.796875 10.773438 L 10.804688 13.867188 L 11.605469 13.867188 L 11.601562 12.199219 C 11.601562 11.699219 11.847656 11.4375 12.277344 11.4375 C 12.304688 11.4375 12.332031 11.4375 12.359375 11.441406 L 12.507812 10.695312 C 12.085938 10.695312 11.78125 10.839844 11.597656 11.132812 Z M 7.5625 12.667969 L 7.5625 10.773438 L 8.363281 10.773438 L 8.363281 12.574219 C 8.363281 12.972656 8.585938 13.207031 8.96875 13.207031 C 9.398438 13.207031 9.648438 12.945312 9.648438 12.441406 L 9.648438 10.773438 L 10.449219 10.773438 L 10.449219 13.867188 L 9.648438 13.867188 L 9.648438 13.511719 C 9.460938 13.804688 9.152344 13.949219 8.726562 13.949219 C 8.011719 13.945312 7.5625 13.425781 7.5625 12.667969 Z M 15.363281 12.320312 C 15.363281 11.453125 15.984375 10.714844 16.972656 10.714844 C 17.882812 10.714844 18.527344 11.445312 18.523438 12.308594 C 18.523438 12.394531 18.515625 12.476562 18.503906 12.5625 L 16.144531 12.558594 C 16.238281 12.929688 16.542969 13.199219 17.003906 13.199219 C 17.285156 13.199219 17.585938 13.09375 17.769531 12.859375 L 18.316406 13.296875 C 18.035156 13.695312 17.539062 13.925781 17.011719 13.925781 C 16.078125 13.921875 15.359375 13.226562 15.363281 12.320312 Z M 17.714844 11.996094 C 17.667969 11.683594 17.34375 11.441406 16.960938 11.441406 C 16.585938 11.441406 16.289062 11.660156 16.167969 11.992188 Z M 12.511719 13.191406 L 13.226562 12.816406 C 13.34375 13.074219 13.578125 13.226562 13.910156 13.226562 C 14.21875 13.226562 14.335938 13.125 14.335938 12.992188 C 14.335938 12.492188 12.648438 12.796875 12.648438 11.65625 C 12.648438 11.027344 13.199219 10.695312 13.878906 10.695312 C 14.398438 10.695312 14.855469 10.925781 15.105469 11.351562 L 14.398438 11.722656 C 14.292969 11.511719 14.097656 11.394531 13.851562 11.394531 C 13.609375 11.394531 13.488281 11.480469 13.488281 11.625 C 13.488281 12.109375 15.175781 11.800781 15.175781 12.960938 C 15.175781 13.5625 14.6875 13.925781 13.894531 13.925781 C 13.21875 13.921875 12.746094 13.699219 12.511719 13.191406 Z M 0.8125 12.316406 C 0.8125 11.421875 1.542969 10.707031 2.453125 10.707031 C 3.011719 10.703125 3.53125 10.976562 3.84375 11.441406 L 3.160156 11.835938 C 3 11.605469 2.738281 11.472656 2.457031 11.472656 C 1.988281 11.472656 1.601562 11.863281 1.601562 12.3125 C 1.601562 12.761719 1.984375 13.152344 2.457031 13.152344 C 2.753906 13.152344 3.023438 13.003906 3.183594 12.753906 L 3.859375 13.15625 C 3.554688 13.632812 3.023438 13.921875 2.460938 13.917969 C 1.542969 13.921875 0.8125 13.195312 0.8125 12.316406 Z M 0.8125 12.316406 "/>
</g>
</svg>
