<?xml version="1.0" encoding="UTF-8"?>
<svg xmlns="http://www.w3.org/2000/svg" xmlns:xlink="http://www.w3.org/1999/xlink" width="25px" height="25px" viewBox="0 0 25 25" version="1.1">
<g id="surface1">
<path style=" stroke:none;fill-rule:nonzero;fill:rgb(0%,0%,0%);fill-opacity:1;" d="M 20.714844 4.070312 C 20.582031 4.070312 20.453125 4.113281 20.34375 4.195312 C 20.261719 4.277344 20.175781 4.398438 20.175781 4.519531 C 20.175781 4.726562 20.421875 5.011719 20.878906 5.480469 C 22.777344 7.308594 23.730469 9.546875 23.722656 12.246094 C 23.714844 15.230469 22.714844 17.632812 20.761719 19.488281 C 20.351562 19.855469 20.183594 20.144531 20.179688 20.394531 C 20.179688 20.511719 20.265625 20.640625 20.347656 20.761719 C 20.425781 20.84375 20.59375 20.929688 20.714844 20.929688 C 21.167969 20.929688 21.800781 20.394531 22.625 19.355469 C 24.230469 17.386719 24.957031 15.214844 25 12.25 C 25.035156 9.285156 24.105469 7.273438 22.289062 5.195312 C 21.632812 4.457031 21.085938 4.070312 20.714844 4.070312 Z M 4.289062 4.070312 C 3.914062 4.070312 3.367188 4.457031 2.714844 5.199219 C 0.894531 7.273438 -0.0351562 9.285156 0 12.25 C 0.0429688 15.214844 0.769531 17.390625 2.375 19.359375 C 3.199219 20.398438 3.832031 20.933594 4.285156 20.929688 C 4.421875 20.917969 4.550781 20.859375 4.652344 20.761719 C 4.734375 20.640625 4.816406 20.515625 4.816406 20.394531 C 4.816406 20.148438 4.648438 19.859375 4.238281 19.492188 C 2.289062 17.632812 1.285156 15.234375 1.277344 12.246094 C 1.269531 9.550781 2.222656 7.308594 4.121094 5.484375 C 4.578125 5.015625 4.824219 4.730469 4.824219 4.523438 C 4.824219 4.398438 4.738281 4.277344 4.65625 4.195312 C 4.546875 4.117188 4.417969 4.074219 4.285156 4.070312 Z M 11.636719 5.003906 C 11.636719 5.003906 12.320312 7.171875 8.878906 12.011719 C 5.589844 16.628906 9.964844 19.457031 10.371094 19.703125 C 10.078125 19.515625 8.285156 18.140625 10.789062 14.054688 C 11.273438 13.253906 11.910156 12.523438 12.699219 10.886719 C 12.699219 10.886719 13.398438 11.871094 13.03125 14.011719 C 12.488281 17.242188 15.398438 16.316406 15.441406 16.363281 C 16.460938 17.558594 14.601562 19.664062 14.488281 19.730469 C 14.375 19.792969 19.796875 16.46875 15.945312 11.464844 C 15.679688 11.726562 15.339844 12.964844 14.625 12.78125 C 13.914062 12.601562 16.839844 9.144531 11.636719 5.003906 Z M 10.371094 19.703125 C 10.394531 19.722656 10.410156 19.730469 10.410156 19.730469 Z M 10.371094 19.703125 "/>
</g>
</svg>
